<?xml version="1.0" encoding="UTF-8" standalone="no"?>
<svg
   xmlns:dc="http://purl.org/dc/elements/1.1/"
   xmlns:cc="http://creativecommons.org/ns#"
   xmlns:rdf="http://www.w3.org/1999/02/22-rdf-syntax-ns#"
   xmlns:svg="http://www.w3.org/2000/svg"
   xmlns="http://www.w3.org/2000/svg"
   xmlns:sodipodi="http://sodipodi.sourceforge.net/DTD/sodipodi-0.dtd"
   xmlns:inkscape="http://www.inkscape.org/namespaces/inkscape"
   width="640.0000000000001"
   height="249.99999999999997"
   id="svg2"
   version="1.1"
   inkscape:version="0.91 r13725"
   sodipodi:docname="descarga.svg">
  <metadata
     id="metadata16">
    <rdf:RDF>
      <cc:Work
         rdf:about="">
        <dc:format>image/svg+xml</dc:format>
        <dc:type
           rdf:resource="http://purl.org/dc/dcmitype/StillImage" />
        <dc:title></dc:title>
      </cc:Work>
    </rdf:RDF>
  </metadata>
  <defs
     id="defs14" />
  <sodipodi:namedview
     pagecolor="#ffffff"
     bordercolor="#666666"
     borderopacity="1"
     objecttolerance="10"
     gridtolerance="10"
     guidetolerance="10"
     inkscape:pageopacity="0"
     inkscape:pageshadow="2"
     inkscape:window-width="1280"
     inkscape:window-height="962"
     id="namedview12"
     showgrid="false"
     inkscape:zoom="0.565625"
     inkscape:cx="320"
     inkscape:cy="125"
     inkscape:window-x="-8"
     inkscape:window-y="-8"
     inkscape:window-maximized="1"
     inkscape:current-layer="svg2" />
  <!-- Created with SVG-edit - http://svg-edit.googlecode.com/ -->
  <g
     id="g4">
    <title
       id="title6">Layer 1</title>
    <g
       stroke="null"
       id="svg_6">
      <path
         stroke="#000000"
         id="svg_2"
         d="m57.317223,228.784255c-13.416378,-2.271461 -20.66038,-23.504692 -7.25467,-31.282778c13.975126,-7.669293 22.286708,19.633105 7.021469,22.301726c-8.358792,3.335217 10.852548,8.920468 14.433202,3.312328c11.188279,-5.767737 9.459966,-20.779481 6.768123,-31.351805c-0.934177,-8.099444 -2.102423,-16.770606 -11.697212,-12.167432c-23.14822,1.983623 -41.474659,-23.028088 -39.633861,-46.426454c0.624958,-22.069862 17.598271,-37.185874 30.166593,-52.511794c-4.126209,-20.050137 -5.372081,-43.213542 6.589408,-60.685706c11.017923,-14.202949 16.610356,11.78729 18.474085,20.606472c4.139819,20.614823 -4.114633,42.277725 -17.849894,56.809431c1.31151,6.892966 2.601926,13.790541 3.938482,20.678058c14.514705,-2.984697 28.36966,10.078121 29.161332,25.378749c2.242752,13.816699 -6.077822,26.864828 -17.442885,32.802851c-0.18688,11.864569 5.968454,24.171675 3.756758,36.423555c-2.124008,12.667349 -15.462343,18.879058 -26.430923,16.112799l-0.000007,0zm15.152862,-54.054979c4.11225,-8.221527 -3.346793,-22.741333 -3.756327,-33.294681c0.161067,-18.402784 -18.166806,3.564802 -12.716493,12.601977c1.61564,5.347515 15.639093,15.154021 2.757441,9.105959c-13.448787,-8.572887 -12.8328,-30.630483 -0.544472,-39.943861c10.309469,-2.43219 4.012836,-17.084653 2.070276,-21.897462c-12.662223,12.290605 -27.014305,27.766938 -24.830568,47.659378c1.644932,18.645093 20.72894,29.955815 37.020143,25.768697l0,-0.000007zm8.519684,-3.558895c12.076767,-8.257399 11.680426,-29.928352 -1.532434,-36.649663c-14.098191,-7.934205 -4.441829,12.852079 -4.183508,20.764076c1.95654,3.028813 0.848238,20.677356 5.715943,15.885587zm-14.883955,-99.335021c7.428741,-9.571444 15.920594,-23.389656 10.703428,-36.044373c-11.235138,-7.8989 -17.478591,13.456881 -17.754903,22.808109c-0.102213,6.063547 -0.941204,26.963555 7.051482,13.236264l0,0l-0.000007,0z"
         stroke-width="5"
         fill="#000000" />
      <text
         stroke="#000000"
         transform="matrix(4.3058914940007185,0,0,5.34788724837199,-90.30780890878302,-244.19029821379894) "
         font-style="normal"
         font-weight="normal"
         xml:space="preserve"
         text-anchor="middle"
         font-family="serif"
         font-size="24"
         id="svg_1"
         y="77.833968"
         x="95.380765"
         stroke-width="0"
         fill="#000000">Victor Diaz</text>
      <path
         stroke="#000000"
         id="svg_4"
         d="m571.636922,93.157434l-2.3698,-8.833966c0.694491,-0.648841 1.346339,-1.3431 1.961634,-2.086023l8.288208,2.52399c0.874206,-1.356077 1.626572,-2.796503 2.299742,-4.292081l-6.168181,-6.358639c0.295463,-0.934331 0.551329,-1.884882 0.73409,-2.864632l8.312576,-2.219035c0.06092,-0.817539 0.118795,-1.638323 0.118795,-2.475327s-0.06092,-1.654544 -0.118795,-2.472083l-8.312576,-2.219035c-0.185807,-0.979749 -0.441672,-1.930301 -0.73409,-2.864632l6.171227,-6.358639c-0.676215,-1.492334 -1.428581,-2.936004 -2.302788,-4.292081l-8.288208,2.520746c-0.612249,-0.739678 -1.267142,-1.433938 -1.961634,-2.086023l2.3698,-8.830722c-1.273234,-0.927842 -2.628711,-1.732405 -4.032924,-2.449374l-5.97019,6.572756c-0.874206,-0.314688 -1.769735,-0.583957 -2.689632,-0.781853l-2.080428,-8.856675c-0.770642,-0.06164 -1.538238,-0.126524 -2.32411,-0.126524s-1.553468,0.064884 -2.321064,0.126524l-2.083474,8.856675c-0.919897,0.197896 -1.812379,0.467165 -2.689632,0.781853l-5.97019,-6.572756c-1.401167,0.726702 -2.753598,1.52802 -4.026832,2.459106l2.3698,8.830722c-0.694491,0.648841 -1.349385,1.346344 -1.958588,2.082779l-8.291254,-2.52399c-0.874206,1.356077 -1.626572,2.799748 -2.299742,4.295325l6.171227,6.358639c-0.292417,0.934331 -0.548283,1.884882 -0.73409,2.864632l-8.315622,2.219035c-0.057874,0.817539 -0.118795,1.638323 -0.118795,2.472083s0.06092,1.654544 0.118795,2.475327l8.315622,2.219035c0.185807,0.979749 0.441672,1.930301 0.73409,2.864632l-6.171227,6.358639c0.673169,1.492334 1.425535,2.936004 2.299742,4.292081l8.291254,-2.52399c0.609203,0.742923 1.264096,1.433938 1.958588,2.086023l-2.3698,8.833966c1.273234,0.927842 2.628711,1.72916 4.029878,2.449374l5.97019,-6.572756c0.877252,0.314688 1.769735,0.587201 2.689632,0.781853l2.083474,8.853431c0.767596,0.064884 1.538238,0.126524 2.32411,0.126524s1.553468,-0.064884 2.32411,-0.126524l2.080428,-8.853431c0.919897,-0.197896 1.815425,-0.470409 2.689632,-0.781853l5.97019,6.572756c1.398121,-0.726702 2.753598,-1.52802 4.026832,-2.455862zm-17.094238,-15.57542c-5.717371,0 -10.353406,-4.937678 -10.353406,-11.027047s4.636035,-11.023803 10.353406,-11.023803s10.35036,4.934433 10.35036,11.023803s-4.632989,11.027047 -10.35036,11.027047zm47.18887,23.050065c0.057874,-1.774579 -0.182761,-3.581601 -0.700584,-5.365912l3.789243,-5.751973c-0.572651,-1.135471 -1.218406,-2.212547 -1.952496,-3.192296l-6.463645,1.443671c-1.303695,-1.18089 -2.787104,-2.102244 -4.374078,-2.760817l-1.861115,-6.744699c-1.175762,-0.220606 -2.366754,-0.340641 -3.572976,-0.343886l-2.966819,6.280778c-0.849838,0.175187 -1.699677,0.415258 -2.534285,0.755899c-0.782826,0.317932 -1.51387,0.713725 -2.214453,1.145204l-6.110307,-2.657003c-0.904667,0.849981 -1.730137,1.768091 -2.47641,2.764061l2.762736,6.384592c-0.788918,1.605881 -1.331109,3.335041 -1.580882,5.142062l-5.760015,3.438856c0.057874,1.258751 0.231497,2.517502 0.499547,3.779497l6.408816,1.683742c0.70363,1.699963 1.647894,3.221494 2.79015,4.519175l-1.072197,6.936107c0.974725,0.746167 2.01037,1.388519 3.085614,1.946522l5.223916,-4.282348c1.632664,0.457433 3.341479,0.63262 5.062477,0.486631l4.422814,5.213435c0.609203,-0.18492 1.21536,-0.382816 1.815425,-0.626131c0.533053,-0.214117 1.035645,-0.467165 1.538238,-0.723457l0.112703,-7.0237c1.385937,-1.099785 2.567791,-2.42342 3.50901,-3.912509l6.582439,-0.434723c0.462994,-1.164669 0.849838,-2.374757 1.120934,-3.617287l-5.0838,-4.483489zm-12.680562,6.511116c-3.658264,1.485845 -7.752109,-0.467165 -9.15023,-4.363454s0.43558,-8.259742 4.093845,-9.748831c3.658264,-1.485845 7.758201,0.467165 9.156322,4.363454c1.395075,3.896288 -0.441672,8.259742 -4.099937,9.748831z"
         stroke-linecap="null"
         stroke-linejoin="null"
         stroke-dasharray="null"
         stroke-width="5"
         fill="#000000" />
    </g>
  </g>
</svg>
